<?xml version="1.0" standalone="no"?>
<!DOCTYPE svg PUBLIC "-//W3C//DTD SVG 20010904//EN"
 "http://www.w3.org/TR/2001/REC-SVG-20010904/DTD/svg10.dtd">
<svg version="1.0" xmlns="http://www.w3.org/2000/svg"
 width="700.000000pt" height="700.000000pt" viewBox="0 0 700.000000 700.000000"
 preserveAspectRatio="xMidYMid meet">
<metadata>
Created by potrace 1.14, written by Peter Selinger 2001-2017
</metadata>
<g transform="translate(0.000000,700.000000) scale(0.100000,-0.100000)"
fill="#000000" stroke="none">
<path d="M3154 6994 c8 -17 -19 -25 -34 -11 -10 10 -12 8 -6 -7 5 -16 4 -17
-9 -6 -12 10 -15 9 -16 -6 0 -18 -1 -18 -9 1 -5 11 -9 15 -9 9 -1 -17 -37 -24
-52 -10 -9 8 -11 7 -6 -5 4 -12 -1 -15 -19 -13 -13 1 -24 -2 -24 -7 0 -5 -4
-9 -8 -9 -5 0 -9 7 -9 15 0 8 4 12 9 9 4 -3 8 0 8 5 0 17 -18 13 -29 -6 -6
-10 -11 -13 -11 -6 0 7 -7 10 -15 7 -8 -4 -12 -11 -8 -18 4 -6 -2 -4 -12 4
-11 9 -16 10 -11 3 4 -7 3 -13 -3 -13 -5 0 -11 6 -14 13 -3 9 -8 9 -18 -2 -9
-8 -9 -11 -2 -7 9 5 11 2 6 -10 -4 -11 -8 -13 -11 -6 -5 15 -34 16 -50 0 -8
-8 -15 -8 -28 3 -10 8 -15 9 -11 3 9 -16 -18 -25 -32 -11 -8 8 -11 8 -11 -2 0
-8 -6 -11 -16 -7 -8 3 -13 2 -10 -3 5 -8 -12 -16 -51 -26 -7 -2 -18 4 -24 13
-9 14 -10 13 -5 -6 5 -23 4 -24 -16 -5 -12 10 -19 13 -15 8 9 -17 -24 -31 -70
-30 -23 1 -39 -3 -37 -7 3 -5 9 -6 14 -3 5 3 11 2 14 -3 2 -4 -5 -8 -17 -9
-12 0 -31 -4 -41 -8 -15 -7 -17 -5 -11 6 5 9 1 8 -11 -3 -11 -10 -30 -19 -42
-21 -12 -2 -25 -7 -29 -12 -5 -4 -2 -5 6 0 10 6 12 4 7 -4 -6 -9 -11 -9 -22 0
-10 8 -14 8 -14 0 0 -6 -3 -10 -7 -10 -21 3 -33 -2 -27 -12 4 -7 -2 -6 -17 2
-22 11 -23 11 -10 -5 12 -14 12 -16 -4 -10 -12 5 -16 4 -11 -4 3 -6 1 -14 -5
-18 -7 -4 -9 -3 -6 2 3 6 2 16 -4 24 -6 11 -9 11 -9 2 0 -14 -45 -35 -72 -34
-10 0 -18 -5 -18 -13 0 -9 -8 -12 -21 -10 -16 3 -19 0 -15 -12 5 -13 4 -14 -9
-3 -13 11 -14 10 -8 -6 6 -16 4 -17 -9 -6 -13 10 -18 9 -29 -5 -12 -15 -12
-16 4 -10 11 4 16 3 12 -4 -4 -6 -13 -8 -19 -6 -7 3 -19 1 -27 -3 -8 -5 -19
-4 -28 3 -10 8 -13 8 -8 1 4 -7 0 -15 -9 -18 -8 -3 -13 -10 -10 -14 3 -5 -1
-9 -9 -9 -8 0 -12 5 -8 10 3 5 -4 4 -16 -2 -11 -7 -21 -14 -21 -17 0 -3 4 -3
9 1 5 3 12 1 15 -4 3 -4 -12 -8 -33 -7 -31 2 -38 -1 -36 -14 2 -9 -3 -17 -10
-17 -7 0 -11 7 -9 16 3 9 -1 6 -7 -6 -7 -13 -16 -23 -21 -23 -5 0 -6 6 -2 13
4 7 3 9 -2 4 -5 -5 -10 -13 -10 -18 -1 -5 -2 -12 -3 -15 0 -4 -7 -1 -15 5 -12
10 -17 8 -25 -7 -6 -11 -8 -22 -5 -25 3 -3 -5 -3 -18 0 -18 4 -20 3 -8 -6 12
-9 9 -11 -13 -11 -20 0 -30 -6 -34 -20 -3 -11 -9 -17 -14 -14 -5 3 -6 10 -3
16 4 7 2 8 -5 4 -6 -4 -9 -11 -6 -15 2 -5 -9 -11 -25 -15 -17 -3 -30 -11 -30
-18 0 -9 3 -9 12 0 7 7 17 12 23 12 15 -1 -27 -24 -50 -27 -11 -2 -28 -14 -38
-26 -10 -12 -16 -16 -12 -9 3 6 2 12 -3 12 -5 0 -12 -10 -16 -22 -4 -17 -8
-20 -15 -10 -7 11 -9 11 -14 -2 -3 -8 -1 -17 6 -20 7 -3 0 -3 -15 -1 -19 2
-25 0 -22 -10 3 -7 0 -16 -7 -21 -8 -5 -10 -3 -4 6 5 8 -5 5 -23 -5 -26 -16
-29 -21 -19 -34 9 -12 9 -13 -1 -7 -14 9 -52 -1 -52 -14 0 -5 8 -7 18 -4 9 4
2 -3 -16 -15 -19 -13 -30 -26 -26 -33 5 -7 3 -8 -5 -4 -9 6 -9 12 3 25 23 26
20 35 -4 11 -11 -11 -20 -25 -20 -31 0 -5 -4 -7 -10 -4 -9 6 -14 -7 -11 -27 0
-4 -6 -5 -14 -2 -8 4 -15 1 -15 -5 0 -6 -5 -11 -11 -11 -5 0 -7 5 -3 12 4 7 3
8 -4 4 -9 -5 -9 -13 -1 -28 9 -16 8 -19 -3 -12 -27 17 -38 14 -27 -8 7 -13 7
-18 1 -14 -6 3 -17 3 -26 0 -13 -5 -14 -9 -5 -21 7 -8 8 -13 3 -12 -5 1 -20 1
-33 0 -24 -1 -24 -1 -5 -16 16 -13 16 -14 1 -9 -16 6 -22 -5 -18 -29 1 -4 -8
-3 -20 4 -15 8 -19 8 -15 0 4 -6 2 -11 -5 -11 -6 0 -9 -8 -6 -19 4 -15 0 -18
-19 -16 -21 2 -22 0 -12 -13 8 -10 9 -13 2 -9 -7 4 -15 0 -18 -9 -4 -9 -13
-14 -22 -10 -8 3 -12 1 -9 -4 7 -11 -36 -56 -49 -52 -5 2 -6 -3 -3 -11 3 -8 1
-20 -5 -28 -8 -11 -9 -11 -5 2 3 9 -1 16 -8 16 -6 0 -12 -8 -11 -18 1 -10 -2
-19 -6 -19 -5 0 -17 -9 -28 -20 -12 -12 -26 -18 -33 -14 -7 4 -4 -2 6 -13 17
-20 17 -20 -7 -18 -19 2 -24 -1 -21 -15 2 -10 -3 -21 -12 -24 -9 -4 -13 -13
-9 -22 5 -14 4 -15 -8 -5 -12 10 -14 8 -12 -13 3 -19 -1 -24 -16 -21 -16 3
-17 1 -8 -10 8 -10 8 -15 -1 -21 -8 -4 -9 -3 -5 4 5 8 2 10 -8 6 -9 -3 -14
-10 -11 -14 8 -13 -6 -40 -21 -40 -7 0 -18 -10 -25 -21 -9 -17 -8 -20 2 -14 8
6 10 4 5 -4 -5 -7 -14 -10 -21 -7 -8 3 -11 -2 -8 -15 5 -17 -5 -24 -30 -20 -5
1 -6 -3 -3 -8 4 -5 2 -13 -4 -16 -8 -5 -8 -11 0 -20 8 -10 8 -15 -1 -21 -8 -4
-9 -3 -5 4 4 7 1 12 -9 12 -11 0 -14 -7 -11 -25 5 -27 -8 -43 -20 -24 -5 8 -3
9 6 4 9 -5 11 -4 6 4 -11 16 -26 3 -19 -16 4 -11 3 -14 -6 -9 -8 5 -10 0 -7
-19 4 -23 3 -25 -10 -14 -12 10 -13 9 -8 -6 5 -13 4 -16 -4 -11 -8 5 -10 1 -5
-10 4 -12 3 -15 -6 -10 -6 4 -11 4 -10 -1 3 -19 -2 -34 -10 -29 -5 4 -8 -6 -6
-20 2 -19 -3 -28 -16 -31 -10 -3 -16 -9 -13 -14 3 -5 10 -6 16 -3 7 4 8 2 4
-4 -4 -6 -14 -8 -23 -5 -12 5 -15 2 -10 -10 4 -12 2 -14 -11 -10 -15 6 -15 5
-3 -11 8 -9 10 -16 5 -15 -20 4 -26 -2 -15 -15 9 -11 9 -16 0 -22 -8 -4 -9 -3
-5 4 4 7 2 12 -3 12 -6 0 -11 -9 -11 -21 0 -13 -4 -18 -12 -13 -8 5 -7 0 2
-11 9 -11 10 -16 3 -11 -7 4 -13 3 -13 -3 0 -5 6 -12 13 -15 6 -3 2 -3 -10 0
-18 4 -21 1 -19 -21 2 -14 -1 -25 -6 -25 -5 0 -6 -4 -3 -10 3 -5 0 -7 -8 -4
-21 8 -29 -24 -9 -36 15 -11 15 -11 -2 -6 -13 5 -17 2 -13 -8 4 -11 1 -13 -11
-9 -15 6 -16 5 -2 -12 12 -15 12 -17 1 -10 -11 6 -13 4 -8 -8 5 -14 -15 -42
-24 -32 -3 2 -4 -13 -4 -34 0 -31 -3 -37 -15 -33 -13 5 -13 3 -2 -10 11 -14
10 -18 -5 -27 -14 -8 -15 -10 -3 -11 13 0 13 -2 0 -9 -8 -6 -18 -7 -24 -4 -5
3 -6 1 -2 -6 4 -6 11 -9 15 -7 4 3 8 -1 8 -8 0 -8 -7 -12 -15 -8 -10 3 -13 1
-8 -6 4 -7 3 -12 -2 -12 -6 0 -8 -9 -5 -20 3 -12 0 -20 -6 -20 -7 0 -9 5 -5
12 4 6 3 8 -4 4 -6 -3 -9 -18 -6 -31 2 -14 0 -25 -6 -25 -5 0 -10 -5 -10 -11
0 -5 6 -7 13 -3 7 5 6 0 -3 -11 -8 -10 -14 -21 -13 -24 1 -3 -1 -8 -4 -11 -4
-3 -3 1 1 7 5 9 2 11 -9 7 -14 -6 -14 -7 0 -18 15 -11 14 -14 -5 -38 -14 -19
-17 -29 -9 -34 8 -5 9 -3 4 6 -5 9 -4 11 4 6 9 -6 9 -11 1 -21 -7 -8 -9 -19
-5 -24 4 -7 -1 -8 -12 -4 -16 6 -16 5 -4 -10 9 -12 10 -17 2 -17 -7 0 -11 -6
-10 -12 3 -28 -2 -38 -18 -39 -14 0 -13 -2 5 -9 12 -5 22 -12 22 -15 0 -4 -4
-4 -8 -1 -4 2 -14 1 -22 -5 -11 -6 -12 -9 -2 -9 7 0 10 -5 7 -10 -4 -6 -10 -8
-15 -5 -5 3 -12 0 -16 -6 -4 -8 -3 -9 4 -5 8 5 12 -1 12 -14 0 -12 -4 -18 -10
-15 -5 3 -10 1 -10 -4 0 -6 5 -11 11 -11 5 0 7 -5 4 -10 -4 -6 -11 -7 -17 -4
-6 4 -6 -2 1 -15 10 -18 9 -21 -6 -21 -11 0 -14 -3 -7 -8 12 -8 15 -44 3 -36
-15 9 -16 -22 -1 -39 15 -16 14 -17 -1 -11 -12 4 -17 1 -17 -11 0 -9 4 -14 9
-10 5 3 13 0 17 -6 4 -7 3 -9 -2 -6 -6 3 -16 -3 -23 -15 -9 -14 -9 -18 -1 -13
9 6 9 2 0 -15 -7 -12 -10 -35 -8 -51 3 -21 0 -29 -11 -30 -12 0 -11 -3 4 -9
14 -6 15 -9 5 -9 -16 -1 -23 -41 -8 -41 4 0 8 -5 8 -11 0 -6 -6 -9 -13 -6 -8
3 -14 -1 -14 -9 0 -7 4 -11 8 -9 4 3 9 -2 12 -10 4 -10 1 -12 -10 -8 -13 5
-14 3 -3 -17 8 -15 8 -20 1 -16 -7 5 -10 -1 -7 -16 2 -13 -2 -33 -10 -45 -11
-18 -11 -21 -1 -17 10 3 13 -7 13 -40 -1 -24 -4 -42 -7 -40 -4 2 -9 -3 -12
-11 -4 -9 -1 -12 7 -9 7 3 13 -2 13 -10 0 -8 -4 -13 -8 -10 -4 2 -10 0 -13 -5
-3 -5 4 -11 15 -14 12 -3 18 -10 15 -16 -4 -6 -14 -8 -24 -5 -15 5 -15 4 -2
-8 18 -16 22 -161 4 -154 -6 2 -11 -2 -11 -9 0 -7 6 -11 12 -9 6 3 12 -2 12
-10 0 -8 -4 -13 -8 -10 -4 2 -10 0 -13 -5 -3 -5 4 -11 15 -14 12 -3 18 -10 15
-16 -4 -6 -14 -8 -24 -5 -15 5 -15 4 -2 -8 8 -7 16 -19 18 -27 3 -12 0 -12
-13 -1 -13 11 -15 10 -9 -4 3 -9 10 -16 14 -16 4 0 11 -7 14 -16 3 -8 2 -12
-4 -9 -6 3 -10 -3 -10 -15 0 -14 4 -19 13 -14 8 5 8 2 -2 -9 -7 -9 -10 -17 -6
-17 5 0 0 -10 -11 -22 -19 -22 -19 -22 0 -8 18 14 19 13 14 -7 -4 -14 -2 -23
5 -23 8 0 8 -3 0 -8 -10 -7 -10 -12 1 -28 10 -13 11 -23 4 -31 -7 -9 -7 -13 1
-13 6 0 11 -7 11 -16 0 -8 -4 -13 -8 -10 -5 3 -9 -1 -9 -10 0 -9 7 -13 21 -9
12 3 15 2 9 -1 -7 -3 -13 -12 -13 -20 0 -9 5 -12 12 -8 7 5 8 3 4 -5 -5 -7
-15 -10 -25 -7 -14 6 -15 5 0 -6 9 -7 14 -19 11 -27 -3 -8 0 -11 7 -7 15 10
14 -7 -1 -23 -7 -8 -8 -11 -3 -8 16 8 38 -30 23 -39 -7 -5 -8 -2 -3 7 5 8 4
11 0 6 -5 -4 -9 -16 -10 -27 -1 -16 1 -18 13 -7 13 10 14 9 3 -10 -9 -18 -9
-23 1 -23 8 0 9 -3 3 -8 -10 -6 -12 -23 -5 -37 4 -9 7 -25 9 -45 0 -12 8 -20
18 -20 15 0 14 -2 -3 -14 -10 -8 -16 -18 -11 -22 4 -4 7 -2 7 4 0 7 4 12 9 12
5 0 7 -10 3 -22 -3 -12 -1 -19 5 -15 5 3 10 0 10 -8 0 -8 -3 -12 -7 -10 -4 2
-7 -2 -7 -10 0 -8 4 -12 9 -8 6 3 8 -3 7 -13 -2 -11 3 -30 11 -44 7 -14 13
-26 12 -27 -7 -11 0 -23 11 -17 9 6 9 4 0 -7 -18 -18 -16 -32 3 -25 8 3 12 2
9 -4 -3 -6 -3 -16 2 -22 4 -7 8 -19 10 -27 1 -8 8 -18 15 -22 11 -7 11 -9 0
-9 -8 0 -12 -6 -9 -12 2 -7 9 -12 15 -11 11 3 4 -36 -11 -54 -6 -9 -6 -13 2
-13 6 0 11 5 11 12 0 6 3 8 8 4 7 -8 9 -14 11 -47 1 -14 6 -19 15 -16 10 4 13
1 9 -10 -3 -8 0 -19 8 -25 10 -7 7 -8 -11 -3 -24 6 -24 5 -4 -7 12 -7 20 -21
18 -31 -1 -9 4 -24 12 -32 8 -7 14 -18 13 -22 -4 -26 3 -43 19 -43 10 0 19 -7
19 -15 0 -9 -5 -12 -12 -7 -6 4 -2 -1 8 -10 11 -10 17 -25 13 -33 -7 -18 5
-19 24 -2 8 6 6 2 -4 -10 -19 -23 -19 -23 3 -23 18 0 21 -4 16 -20 -4 -11 -2
-20 4 -20 6 0 10 -6 8 -12 -1 -7 5 -12 13 -10 10 1 9 -2 -4 -13 -17 -13 -17
-15 -4 -15 9 0 20 -5 24 -12 4 -7 3 -8 -4 -4 -8 5 -10 2 -6 -8 3 -9 10 -13 15
-10 5 3 9 -2 9 -10 0 -9 6 -16 13 -16 8 0 7 -4 -3 -10 -12 -7 -12 -10 -1 -10
8 0 11 -6 7 -16 -5 -13 -4 -14 7 -6 11 10 13 6 12 -18 -2 -26 0 -28 14 -18 9
7 13 9 9 4 -4 -5 -2 -18 4 -30 11 -20 10 -20 -8 -7 -18 14 -18 14 -1 -5 15
-16 19 -17 27 -4 7 10 8 5 4 -17 -6 -29 -4 -33 15 -33 11 0 21 -5 21 -11 0 -5
-4 -8 -9 -4 -5 3 -13 1 -16 -5 -4 -6 -1 -9 6 -8 7 2 14 -3 15 -9 1 -7 2 -17 3
-23 0 -5 6 -10 12 -10 8 0 8 4 0 14 -9 11 -9 16 1 22 7 4 10 4 6 -1 -4 -4 -3
-14 3 -22 6 -7 8 -13 5 -13 -4 0 -1 -6 6 -14 7 -8 17 -11 22 -8 5 3 6 0 2 -7
-6 -9 -11 -9 -23 1 -15 12 -15 11 -3 -9 8 -12 18 -19 22 -17 4 3 8 0 8 -6 0
-6 5 -8 11 -4 8 4 8 0 0 -15 -10 -18 -9 -20 5 -14 12 4 15 3 10 -5 -4 -7 -2
-12 4 -12 6 0 9 -4 6 -9 -3 -4 4 -17 17 -27 l22 -19 -18 22 c-15 17 -16 23 -5
29 7 4 10 4 6 -1 -4 -4 6 -25 23 -47 17 -21 29 -45 26 -52 -3 -8 1 -17 9 -20
10 -4 13 -2 8 7 -4 7 -3 9 2 4 5 -5 9 -14 9 -20 1 -7 7 -11 15 -9 11 3 11 0 0
-15 -8 -10 -11 -15 -6 -11 11 10 37 -17 39 -41 0 -11 5 -17 9 -15 5 3 6 10 3
15 -10 15 2 10 16 -8 10 -11 10 -14 2 -9 -21 12 -15 -3 11 -29 13 -13 27 -21
32 -17 4 4 4 2 1 -4 -8 -14 71 -104 91 -104 9 0 13 -7 10 -18 -3 -11 0 -19 8
-20 8 -1 21 -3 29 -4 9 -1 14 -7 11 -15 -4 -9 0 -13 12 -11 12 2 17 -3 16 -19
0 -12 3 -20 8 -17 11 7 50 -21 41 -29 -3 -4 -1 -7 6 -7 7 0 11 -6 8 -14 -4 -9
0 -12 12 -9 11 3 21 -2 25 -13 6 -15 4 -15 -11 -3 -16 12 -17 12 -6 -2 7 -9
10 -18 8 -21 -3 -3 6 -4 20 -3 28 4 32 -4 13 -24 -11 -10 -10 -11 5 -6 11 5
17 2 17 -6 0 -11 3 -11 10 1 8 12 10 10 10 -8 0 -13 4 -20 10 -17 5 3 10 -1
10 -9 0 -8 9 -18 20 -21 11 -4 18 -11 15 -16 -6 -8 8 -13 20 -6 2 1 11 -7 19
-18 9 -11 16 -16 16 -12 0 5 7 1 16 -7 8 -9 20 -13 26 -10 5 4 5 -4 -2 -16 -7
-13 -8 -20 -2 -16 6 3 13 2 17 -4 4 -6 11 -8 16 -5 5 4 9 1 9 -6 0 -8 4 -8 16
2 13 11 15 11 14 -2 -5 -30 0 -38 18 -32 9 3 14 3 10 -2 -4 -4 -1 -14 7 -21
18 -19 31 -18 15 1 -7 9 -8 15 -2 15 11 0 24 -28 17 -39 -2 -4 2 -8 10 -8 8 0
12 4 9 8 -2 4 0 11 6 14 6 4 10 3 9 -2 -4 -22 2 -35 15 -30 11 4 13 1 9 -10
-4 -11 -2 -14 5 -9 7 4 12 2 12 -3 0 -6 5 -11 11 -11 5 0 7 6 3 13 -5 8 -2 8
9 -2 9 -7 17 -20 17 -27 0 -8 3 -13 8 -12 16 4 52 -14 46 -24 -4 -6 2 -6 15 1
17 9 20 9 15 -3 -9 -24 5 -39 24 -24 14 11 15 10 9 -6 -6 -16 -5 -17 8 -6 13
11 16 11 13 -1 -2 -8 4 -13 15 -13 14 2 16 -3 11 -20 -4 -11 -3 -18 1 -14 4 4
17 3 28 -3 12 -7 17 -7 13 -1 -7 12 20 10 31 -3 4 -4 2 -5 -4 -1 -8 4 -13 1
-13 -7 0 -11 7 -13 22 -9 16 4 19 2 13 -9 -5 -8 -5 -11 -1 -7 5 4 25 -4 46
-17 35 -22 39 -23 43 -7 4 16 5 16 6 0 0 -10 8 -18 16 -18 8 0 15 -6 15 -12 0
-9 4 -8 10 2 9 13 10 13 11 0 1 -8 1 -18 0 -22 0 -5 3 -8 9 -8 5 0 10 6 10 12
0 7 7 3 15 -9 8 -12 28 -23 43 -25 15 -2 26 -8 25 -14 -1 -6 4 -11 12 -11 7 0
11 7 7 15 -3 10 -1 13 6 8 7 -4 12 -14 12 -22 0 -8 5 -14 11 -14 5 0 7 5 4 10
-11 18 7 10 26 -12 11 -11 19 -16 19 -10 0 7 5 12 10 12 6 0 10 -6 10 -13 0
-8 11 -12 29 -11 18 1 32 -4 35 -12 3 -8 12 -11 22 -7 13 5 15 3 9 -7 -6 -10
-4 -11 6 -4 25 15 39 13 54 -9 9 -12 18 -21 20 -19 14 6 25 0 20 -10 -4 -7 1
-4 9 6 16 19 16 19 16 -1 0 -19 3 -21 31 -13 25 8 29 7 19 -5 -7 -8 -7 -15 -1
-19 5 -4 14 2 20 11 8 14 11 15 12 3 1 -8 1 -19 0 -23 -1 -5 3 -6 9 -2 6 3 8
11 5 16 -3 5 1 6 9 3 9 -3 13 -11 9 -18 -4 -6 1 -5 10 3 15 12 21 9 19 -10 -1
-4 8 -4 20 -1 16 4 19 2 13 -9 -6 -9 -2 -8 11 3 16 14 22 14 36 4 10 -7 15
-15 12 -18 -2 -3 7 -3 21 0 30 5 77 -16 68 -31 -3 -6 -1 -7 6 -3 9 6 9 11 -1
23 -12 15 -11 15 9 3 12 -8 19 -18 16 -23 -3 -5 4 -4 15 2 15 8 23 8 28 -1 4
-7 3 -8 -4 -4 -8 5 -10 1 -5 -10 5 -14 8 -13 19 7 10 19 13 20 14 7 0 -10 5
-18 11 -18 5 0 8 4 5 8 -2 4 6 8 20 8 13 0 24 -5 24 -12 0 -13 17 -13 36 -1 7
4 14 1 17 -7 3 -8 16 -12 31 -11 14 2 28 -1 32 -6 7 -12 24 -11 24 2 0 5 -5 7
-12 3 -7 -5 -8 -3 -3 5 5 9 14 6 33 -11 15 -13 20 -15 13 -5 -12 15 -12 17 3
11 9 -3 24 0 33 7 9 8 14 9 11 4 -4 -6 -3 -17 3 -25 7 -12 9 -12 9 3 0 17 1
17 16 3 8 -9 23 -16 32 -15 12 0 11 3 -5 9 -32 13 -29 15 20 16 24 0 46 -6 53
-14 8 -12 12 -11 23 2 17 20 31 20 31 0 0 -8 5 -12 10 -9 6 4 8 10 6 13 -8 14
79 8 90 -6 8 -12 12 -11 23 2 17 20 31 20 31 0 0 -8 5 -12 10 -9 6 4 8 10 6
13 -8 14 79 8 90 -6 8 -12 12 -11 23 2 17 20 31 20 31 0 0 -8 5 -12 10 -9 6 4
8 10 6 13 -8 14 79 8 90 -6 8 -12 12 -11 23 2 17 20 31 20 31 0 0 -8 5 -12 10
-9 6 4 8 9 6 13 -2 4 7 8 20 8 13 1 21 -2 18 -7 -3 -5 0 -9 5 -9 6 0 11 5 11
12 0 6 7 3 16 -8 8 -10 13 -14 10 -7 -10 19 12 25 24 6 11 -17 11 -17 6 0 -3
11 0 17 10 17 9 0 12 -5 8 -12 -6 -10 -5 -10 8 -1 8 7 18 10 21 6 4 -3 7 -1 7
5 0 8 7 9 26 2 19 -7 23 -7 18 2 -5 8 -2 9 10 5 10 -4 15 -3 11 3 -3 6 -1 10
4 10 6 0 11 -5 11 -11 0 -6 9 -1 20 12 11 13 20 20 19 14 -4 -29 1 -36 15 -22
9 8 28 13 44 11 20 -2 35 3 47 16 16 18 19 18 44 2 25 -16 25 -16 12 1 -12 16
-12 18 0 15 8 -2 20 -10 26 -18 11 -13 12 -13 7 3 -5 13 -2 16 10 11 11 -4 16
-1 16 12 0 17 1 17 13 -1 11 -14 16 -15 22 -5 5 9 4 11 -3 6 -7 -4 -12 -5 -12
-2 0 3 9 10 20 16 16 9 18 8 14 -5 -5 -11 -2 -13 10 -9 9 3 14 9 11 13 -2 4
10 5 27 3 24 -4 29 -2 23 8 -6 10 -4 12 8 7 10 -3 17 -2 17 2 0 5 8 12 18 16
14 5 15 4 5 -6 -7 -7 -13 -17 -13 -22 0 -5 7 -1 16 7 8 9 20 13 26 10 7 -5 8
-2 3 6 -6 9 -2 10 15 5 13 -4 20 -3 17 2 -3 5 3 14 13 21 16 10 21 9 29 -6 10
-16 11 -15 12 3 1 11 1 23 1 26 -1 3 6 6 13 6 12 0 12 -3 2 -15 -10 -13 -9
-14 9 -4 12 6 24 9 27 5 4 -3 18 5 31 18 14 13 30 25 35 25 6 1 13 3 16 4 13
6 31 6 41 -2 6 -4 19 0 30 11 11 10 27 17 37 15 9 -1 20 3 24 8 4 7 1 8 -7 3
-9 -5 -11 -4 -6 4 6 9 11 9 24 -1 9 -7 13 -8 9 -2 -4 7 1 18 10 25 14 12 16
12 9 0 -6 -9 -5 -12 5 -9 8 3 13 12 13 21 -1 13 2 14 17 6 15 -8 19 -6 19 8 0
10 4 14 8 8 4 -5 14 -11 22 -13 11 -3 9 3 -5 20 -15 17 -16 19 -2 9 14 -11 17
-11 17 0 0 11 2 11 10 -1 7 -11 10 -11 10 -2 0 7 6 12 13 11 23 -3 37 1 37 10
0 5 -6 11 -12 14 -7 2 -5 3 5 2 9 -2 17 2 17 8 0 7 5 5 10 -3 9 -13 10 -13 11
0 1 8 1 18 1 21 -2 10 32 5 40 -6 5 -6 8 -3 8 7 0 9 5 20 12 24 7 4 8 3 4 -4
-4 -7 -1 -12 8 -12 10 0 13 6 9 18 -6 15 -5 15 10 3 14 -11 18 -11 23 3 3 9
10 14 14 11 4 -3 13 2 20 10 7 8 19 15 27 15 9 0 13 6 9 15 -5 13 -2 14 15 4
15 -8 19 -8 15 0 -4 6 -2 11 3 11 6 0 11 8 11 18 0 14 2 15 10 2 7 -11 10 -11
10 -2 0 7 5 10 10 7 6 -3 10 1 10 10 0 11 5 15 15 11 8 -3 15 -1 15 4 0 6 7
10 15 10 8 0 15 8 15 18 0 13 2 14 9 4 7 -11 9 -11 14 2 4 9 18 21 32 26 14 5
25 17 25 27 0 13 2 15 9 5 6 -10 10 -10 21 2 7 9 16 13 21 10 5 -3 6 3 2 13
-6 16 -5 17 12 3 17 -14 18 -14 6 8 -10 18 -9 22 4 22 10 0 14 -5 10 -12 -4
-7 6 1 20 17 15 17 24 24 20 16 -6 -9 -4 -12 3 -7 7 4 12 15 12 24 0 15 2 15
10 2 9 -13 10 -13 10 0 0 8 8 24 17 35 14 18 15 19 9 1 -5 -15 -4 -17 7 -8 8
7 18 8 23 4 4 -4 3 0 -4 10 -10 12 -10 18 -1 24 8 4 9 3 5 -4 -4 -7 -1 -12 8
-12 10 0 13 6 9 18 -6 15 -5 15 10 3 15 -12 17 -12 12 1 -6 16 28 62 39 51 3
-3 6 -1 6 6 0 8 6 11 16 7 14 -6 15 -4 4 9 -7 9 -9 15 -4 14 22 -4 35 2 28 13
-5 8 -2 9 10 5 9 -4 15 -3 11 2 -3 5 3 17 12 27 10 10 17 19 16 21 -6 7 9 4
15 -3 4 -4 1 -4 -7 1 -10 6 -12 4 -6 -5 6 -10 11 -9 21 5 7 10 10 23 7 29 -4
6 2 4 12 -4 17 -14 18 -14 6 9 -8 15 -9 21 -2 17 6 -4 20 -4 32 -1 17 6 18 9
7 23 -7 10 -9 14 -4 10 10 -8 36 14 29 25 -2 4 1 6 9 5 7 -2 12 3 11 10 -2 6
2 12 8 12 5 0 8 4 4 9 -3 5 0 13 6 17 8 5 9 3 4 -6 -5 -8 -3 -11 6 -8 8 3 13
11 11 18 -2 8 3 10 14 6 13 -5 14 -4 6 7 -15 17 4 38 27 30 9 -4 13 -2 9 2 -5
5 2 13 15 20 16 8 21 18 19 35 -4 25 -3 25 12 5 13 -16 15 -17 10 -2 -4 12 -1
17 11 17 9 0 13 5 10 10 -4 6 -11 7 -17 4 -7 -4 -8 -2 -4 5 4 6 12 8 18 5 8
-5 9 -1 4 11 -5 15 -4 16 9 5 13 -11 14 -10 9 5 -5 12 -4 16 3 12 6 -4 14 0
17 9 3 8 10 12 16 9 6 -3 7 0 4 9 -4 10 10 31 37 57 25 24 34 37 21 30 -13 -7
-26 -10 -30 -7 -3 3 -1 6 4 6 5 0 20 10 34 21 14 11 19 18 12 14 -11 -6 -12
-3 -3 14 7 11 14 21 17 21 3 0 2 -4 -1 -10 -3 -6 1 -7 10 -4 11 5 13 10 5 19
-9 11 -3 17 25 31 20 9 33 19 31 22 -3 3 -13 -1 -23 -9 -13 -10 -11 -3 7 26
21 36 53 79 36 48 -3 -6 -1 -15 5 -19 7 -4 9 -3 5 4 -3 6 -2 13 4 17 5 3 10
11 10 16 0 6 -5 7 -12 3 -7 -5 -8 -3 -4 5 5 7 15 10 23 6 14 -5 14 -3 2 12 -7
10 -10 15 -5 11 11 -9 36 14 28 26 -3 5 3 6 13 2 15 -5 16 -4 5 9 -7 8 -9 15
-4 15 5 0 2 5 -6 11 -12 8 -10 9 7 4 19 -5 22 -3 16 11 -5 12 -3 15 6 9 11 -6
11 -3 0 16 -12 23 -11 23 6 9 17 -14 18 -13 12 4 -6 15 -5 16 6 8 10 -8 13 -6
13 8 0 10 -4 16 -9 13 -5 -3 -3 4 4 15 7 12 17 20 22 19 5 -1 12 4 15 12 3 9
0 11 -8 6 -7 -4 -4 4 5 19 10 14 21 26 25 26 4 0 7 8 6 18 0 9 5 16 12 14 8
-1 11 2 7 8 -3 6 -11 8 -16 5 -5 -4 -9 -1 -9 4 0 6 7 11 15 11 9 0 12 6 8 17
-4 11 -3 14 5 9 7 -4 12 -3 12 3 0 5 -5 13 -10 16 -16 10 10 37 28 30 12 -4
13 -3 2 10 -8 10 -9 15 -1 15 6 0 11 5 11 11 0 5 -5 7 -12 3 -7 -5 -8 -3 -4 5
6 9 13 8 29 -6 l20 -18 -19 30 c-12 19 -14 26 -5 20 11 -6 13 -4 8 8 -4 12 2
22 21 32 27 16 27 16 2 11 -21 -4 -23 -3 -9 7 9 7 14 18 11 26 -3 8 0 11 6 7
14 -8 27 37 18 60 -5 13 -3 14 7 6 10 -8 13 -6 13 9 0 10 -5 19 -11 20 -5 0 0
4 12 9 15 6 21 15 17 25 -4 8 -1 15 6 15 10 0 10 3 1 14 -9 11 -9 16 0 22 8 5
9 3 4 -6 -5 -9 -4 -11 4 -6 9 6 9 11 -1 24 -7 9 -8 13 -2 9 6 -3 16 5 22 18 8
17 8 25 1 25 -6 0 -7 5 -4 10 4 6 12 8 18 4 7 -3 3 2 -7 10 -19 16 -19 16 2
16 15 0 20 5 16 15 -4 8 -11 12 -17 8 -6 -3 -7 -1 -3 6 4 6 12 9 17 6 10 -7
12 4 9 54 -1 19 2 31 8 27 5 -3 13 1 16 10 3 8 2 12 -4 9 -13 -8 -13 1 0 25 6
12 6 21 1 25 -6 3 -3 18 7 34 9 16 21 27 27 23 5 -3 4 1 -2 9 -10 12 -10 18
-1 27 9 9 9 12 -1 12 -7 0 -10 4 -6 10 3 5 13 7 23 4 10 -4 13 -3 6 3 -12 9
-25 75 -13 68 4 -3 12 2 19 10 11 13 10 14 -6 8 -17 -6 -18 -5 -5 11 13 15 13
19 0 27 -12 7 -11 9 2 9 13 0 16 9 15 44 -1 25 2 42 6 40 4 -3 8 0 8 5 0 6 -4
11 -8 11 -5 0 -9 7 -9 15 0 12 3 12 15 2 13 -10 14 -9 3 12 -11 19 -11 28 0
47 7 13 9 27 6 31 -4 3 -7 -1 -7 -10 0 -10 -8 -17 -17 -17 -11 0 -14 3 -7 8 6
4 10 36 9 74 0 36 2 65 6 62 4 -2 9 3 12 11 4 9 1 12 -7 9 -7 -3 -13 2 -13 10
0 8 4 13 8 11 4 -3 9 2 12 10 4 9 1 12 -9 8 -10 -4 -12 0 -8 11 3 9 10 13 15
10 5 -3 6 2 3 11 -5 13 -9 13 -22 3 -13 -11 -14 -11 -7 2 5 8 10 24 10 35 0
11 4 27 10 35 14 23 14 52 -1 39 -9 -7 -12 -4 -10 15 0 13 4 22 7 20 4 -2 9 3
12 11 4 9 1 12 -7 9 -7 -3 -13 2 -13 10 0 8 4 13 9 10 4 -3 8 0 8 5 0 6 -4 11
-10 11 -5 0 -7 7 -4 15 4 8 9 13 13 11 3 -2 6 14 7 36 0 28 -2 35 -8 24 -5 -9
-7 -20 -4 -25 3 -5 -2 -15 -12 -22 -15 -12 -16 -12 -6 1 5 8 10 45 9 82 0 36
3 64 6 62 4 -2 9 3 12 11 4 9 1 12 -7 9 -7 -3 -13 2 -13 10 0 8 4 13 9 10 4
-3 8 -2 9 3 0 4 2 16 4 26 2 9 -1 15 -6 11 -5 -3 -7 -10 -4 -15 4 -5 1 -9 -5
-9 -7 0 -9 7 -6 15 3 8 9 22 13 32 4 10 2 14 -4 10 -5 -3 -10 1 -10 9 0 8 5
13 12 11 6 -3 12 5 13 16 1 17 -1 19 -8 7 -8 -13 -11 -13 -22 -1 -7 8 -8 11
-2 8 6 -4 16 4 22 17 9 21 8 23 -11 19 -20 -4 -20 -3 -4 7 12 8 15 16 9 23 -5
7 -9 28 -8 47 1 19 -3 38 -9 42 -6 5 -5 8 4 8 11 0 10 5 -4 20 -10 11 -14 20
-9 20 5 0 2 5 -6 11 -12 8 -10 10 10 5 22 -4 23 -4 8 8 -18 13 -26 42 -9 32
11 -7 8 21 -4 31 -4 4 -5 2 -1 -4 4 -7 2 -13 -4 -13 -7 0 -9 8 -5 20 4 13 2
20 -7 20 -10 0 -9 3 2 10 12 8 12 10 1 10 -11 0 -11 3 0 17 11 13 11 15 1 9
-10 -6 -13 -3 -12 10 4 34 0 45 -11 38 -8 -5 -9 -2 -1 12 8 15 6 24 -11 42
-20 22 -20 23 -2 17 19 -6 19 -6 3 8 -14 11 -15 16 -5 27 10 10 9 12 -5 7 -13
-5 -16 -1 -12 19 3 15 1 23 -5 20 -5 -4 -13 -2 -16 4 -4 6 -1 9 5 8 15 -4 22
30 9 38 -5 3 -8 0 -7 -7 2 -6 -4 -14 -12 -16 -13 -4 -13 -3 0 6 8 6 11 11 7
11 -4 0 -3 9 3 19 7 14 7 22 -2 27 -7 4 -8 3 -4 -4 4 -7 2 -12 -3 -12 -6 0
-11 7 -11 16 0 9 -5 12 -12 8 -7 -4 -8 -3 -4 5 4 6 11 9 16 6 13 -8 3 37 -11
49 -9 8 -10 7 -4 -3 5 -9 4 -12 -3 -7 -6 3 -9 18 -6 32 3 14 1 23 -3 21 -5 -3
-13 10 -19 28 -6 19 -7 32 -2 29 4 -3 8 0 8 5 0 6 -4 11 -9 11 -5 0 -12 11
-15 25 -4 14 -10 24 -15 21 -4 -3 -8 1 -8 9 0 8 4 12 9 9 4 -3 8 0 8 5 0 6
-10 11 -22 11 -15 0 -19 3 -11 8 14 9 6 52 -9 52 -5 0 -6 -5 -2 -12 5 -7 3 -8
-5 -4 -9 6 -8 13 6 28 13 15 14 19 3 16 -9 -2 -14 3 -12 11 2 8 -3 11 -12 8
-10 -4 -13 -1 -10 8 3 8 -3 24 -15 36 -16 17 -18 26 -10 41 10 18 9 19 -13 7
-21 -11 -22 -11 -9 4 10 13 10 17 1 17 -10 0 -9 4 1 18 7 9 10 14 5 10 -4 -3
-16 1 -26 10 -16 13 -17 19 -7 31 8 10 8 12 1 8 -7 -4 -14 2 -17 14 -4 14 -10
18 -19 13 -9 -5 -8 -2 2 11 8 10 10 16 4 12 -6 -3 -18 10 -28 31 l-17 37 21
-25 c20 -24 21 -24 10 -2 -6 13 -18 26 -26 29 -8 3 -14 14 -14 24 0 11 -7 19
-17 19 -15 0 -16 2 -3 10 12 8 12 10 -5 10 -17 0 -17 2 -5 10 13 8 13 10 -2
10 -11 0 -15 6 -11 20 4 14 1 20 -8 18 -8 -2 -13 3 -12 10 2 6 -2 12 -7 12 -6
0 -10 10 -10 23 0 18 -2 19 -10 7 -8 -12 -10 -11 -10 8 0 12 -5 22 -11 22 -8
0 -8 4 0 14 10 12 8 13 -11 8 -21 -5 -22 -4 -8 13 8 10 10 16 5 13 -14 -9 -40
8 -40 24 0 7 -9 12 -20 11 -11 -1 -14 0 -7 3 6 3 12 12 12 20 0 9 -4 12 -10 9
-5 -3 -10 0 -10 8 0 8 -10 19 -22 26 -23 11 -23 11 2 6 14 -3 19 -2 12 1 -6 3
-10 10 -7 15 4 5 -1 6 -9 3 -15 -6 -21 6 -17 29 1 4 -6 10 -14 13 -8 3 -12 11
-8 18 4 6 0 5 -9 -2 -14 -12 -16 -10 -11 10 4 19 3 20 -7 8 -10 -13 -11 -11
-7 7 4 18 1 21 -22 17 -25 -5 -25 -5 -6 10 20 16 14 20 -25 17 -9 0 -10 2 -3
5 15 7 5 34 -13 34 -8 0 -13 3 -13 8 4 26 -1 34 -16 22 -13 -11 -14 -10 -9 4
7 17 -11 46 -29 46 -6 0 -2 -7 9 -16 18 -14 18 -15 -4 -4 -12 6 -20 15 -17 20
3 5 -3 11 -14 15 -11 3 -22 13 -25 21 -3 9 -11 12 -17 8 -8 -5 -9 -3 -4 5 5 9
14 6 33 -11 l26 -23 -25 31 c-24 30 -59 43 -59 22 0 -6 -3 -8 -6 -5 -4 4 -1
13 6 22 9 11 9 15 1 15 -7 0 -9 5 -5 13 5 7 0 6 -11 -3 -15 -12 -17 -12 -10
-1 6 11 4 13 -9 8 -14 -6 -15 -4 -5 16 6 12 8 19 4 15 -4 -4 -16 2 -26 13 -10
12 -23 18 -28 14 -7 -3 -8 0 -5 9 6 14 -5 21 -28 17 -5 0 -8 6 -8 15 0 9 -5
12 -12 8 -8 -5 -7 0 2 11 14 17 14 18 -10 5 -23 -12 -24 -12 -11 3 9 12 10 17
2 17 -7 0 -9 5 -5 13 6 9 5 9 -8 -1 -12 -10 -17 -10 -25 0 -21 27 -24 42 -4
18 14 -17 19 -19 15 -7 -7 19 -85 77 -104 77 -6 0 -8 5 -4 12 5 8 2 9 -9 5 -9
-3 -19 -2 -22 4 -4 5 -10 7 -15 4 -5 -3 -11 -1 -14 4 -4 5 -1 13 5 17 8 5 9 3
4 -7 -5 -8 -5 -11 0 -7 4 4 14 3 22 -3 8 -7 13 -8 13 -1 0 9 -24 24 -41 26 -4
1 -17 12 -29 26 -12 14 -19 19 -15 13 3 -7 3 -13 0 -13 -11 0 -35 28 -35 40 0
6 -4 8 -10 5 -5 -3 -10 -1 -10 6 0 8 -5 7 -17 -2 -11 -10 -14 -10 -9 -1 4 6 2
12 -3 12 -6 0 -11 7 -11 16 0 8 -4 13 -9 10 -5 -4 -12 0 -14 6 -4 9 -8 10 -14
2 -5 -7 -14 -4 -25 8 -10 10 -14 18 -10 18 4 0 13 -5 19 -11 8 -8 13 -7 18 2
5 7 4 10 -2 6 -6 -4 -16 0 -23 8 -9 11 -16 12 -25 5 -10 -8 -17 -5 -28 11 -9
11 -20 18 -26 15 -7 -5 -8 -1 -4 10 4 12 3 15 -5 10 -7 -4 -12 -2 -12 5 0 7
-3 10 -6 6 -4 -3 -15 4 -26 16 -11 12 -16 16 -12 8 4 -9 2 -12 -7 -9 -8 3 -13
11 -11 17 1 7 -2 10 -8 6 -5 -3 -10 -1 -10 4 0 6 -7 11 -16 11 -20 0 -45 25
-36 36 4 5 -2 2 -12 -6 -17 -13 -18 -13 -11 -1 6 11 4 13 -10 7 -15 -5 -16 -4
-6 8 10 12 7 14 -18 12 -21 -1 -27 1 -21 9 6 7 0 11 -17 13 -14 1 -31 10 -38
19 -13 17 -50 28 -39 12 3 -5 9 -7 14 -4 5 3 11 1 14 -4 11 -16 -26 -5 -39 12
-7 9 -15 14 -18 10 -4 -3 -7 -1 -7 7 0 10 -4 10 -17 -1 -9 -8 -14 -9 -10 -3 4
7 0 17 -8 24 -13 11 -14 10 -9 -6 4 -15 1 -13 -16 6 -12 14 -19 20 -16 13 4
-6 2 -15 -4 -18 -6 -4 -10 -3 -9 2 4 21 -2 34 -13 27 -6 -4 -17 1 -25 11 -7
11 -13 13 -13 7 0 -7 -5 -12 -11 -12 -5 0 -7 5 -4 10 3 6 1 10 -5 10 -6 0 -8
5 -4 12 4 7 3 8 -5 4 -6 -4 -9 -11 -7 -15 3 -4 -1 -8 -9 -8 -8 0 -12 3 -10 7
3 4 -5 16 -18 26 -16 14 -18 15 -9 2 12 -14 10 -16 -8 -11 -12 3 -24 12 -27
20 -4 10 -9 11 -18 3 -10 -8 -16 -7 -23 6 -6 11 -16 15 -27 10 -15 -5 -16 -4
-5 9 11 13 11 16 -1 13 -8 -2 -17 -7 -21 -13 -5 -6 -8 -5 -8 3 0 6 -9 12 -19
12 -10 0 -21 7 -25 15 -4 11 -11 13 -29 6 -25 -10 -61 4 -52 20 4 5 -2 6 -11
2 -10 -4 -15 -2 -11 4 3 5 1 10 -6 11 -40 5 -54 9 -67 17 -9 5 -15 4 -18 -3
-2 -7 -8 -12 -13 -12 -6 0 -7 5 -3 11 4 7 -2 10 -17 8 -29 -4 -52 8 -43 23 5
7 2 8 -6 3 -25 -16 -90 -9 -106 11 -14 18 -15 18 -9 -6 l7 -25 -16 22 c-16 21
-30 24 -53 10 -9 -6 -11 -3 -7 8 5 11 0 15 -17 13 -15 -2 -23 2 -22 10 4 17
-2 15 -18 -5 -12 -14 -12 -16 0 -8 10 5 12 4 7 -3 -12 -19 -26 -14 -26 11 0
17 -2 19 -9 7 -6 -8 -7 -19 -3 -25 3 -5 -2 -4 -11 3 -9 8 -20 11 -26 8 -5 -4
-17 1 -25 10 -12 11 -16 12 -16 2 0 -10 -2 -10 -9 1 -8 12 -14 13 -37 2 -24
-11 -26 -10 -15 3 10 12 9 14 -8 9 -12 -3 -21 -1 -21 6 0 6 -5 11 -11 11 -5 0
-7 -5 -3 -12 5 -7 2 -9 -8 -5 -9 3 -21 0 -28 -6 -7 -7 -10 -7 -7 -2 3 6 2 17
-4 25 -7 12 -9 11 -9 -4 0 -20 0 -20 -16 0 -13 16 -15 16 -10 2 3 -10 1 -20
-5 -24 -6 -3 -13 3 -16 15 -3 11 -9 18 -14 15 -5 -3 -7 -9 -5 -13 3 -4 -2 -8
-10 -8 -8 0 -13 6 -10 12 2 6 -2 12 -9 12 -7 0 -11 -5 -9 -11 3 -7 -15 -11
-51 -11 -30 0 -55 3 -55 6 0 4 -7 10 -16 13 -14 6 -15 4 -4 -9 11 -13 11 -16
-1 -13 -8 2 -20 10 -27 18 -12 13 -13 13 -8 -2 3 -10 1 -20 -5 -24 -6 -3 -13
3 -16 15 -3 11 -9 18 -14 15 -5 -3 -7 -9 -5 -13 3 -4 -2 -8 -10 -8 -8 0 -13 6
-10 12 2 6 -2 12 -9 12 -7 0 -11 -6 -9 -12 4 -8 -9 -11 -41 -9 -25 2 -44 0
-41 -5 3 -4 -1 -8 -9 -8 -8 0 -12 4 -9 9 3 4 -5 6 -18 5 -13 -2 -29 3 -36 12
-12 15 -13 14 -8 -1 3 -10 0 -20 -6 -24 -7 -4 -8 -3 -4 4 4 8 -3 10 -25 7 -23
-3 -29 0 -25 10 3 9 0 12 -9 8 -8 -3 -13 -8 -11 -12 2 -3 -11 -7 -29 -7 -24
-1 -35 4 -38 15 -4 12 -5 11 -6 -3 -1 -20 -1 -20 -17 0 -8 10 -13 14 -10 8z
m1287 -137 c-10 -9 -11 -8 -5 6 3 10 9 15 12 12 3 -3 0 -11 -7 -18z m59 3 c12
-7 10 -9 -8 -7 -12 0 -22 5 -22 9 0 11 12 10 30 -2z m1290 -700 c0 -5 -5 -10
-11 -10 -5 0 -7 5 -4 10 3 6 8 10 11 10 2 0 4 -4 4 -10z m507 -526 c-3 -3 -12
-4 -19 -1 -8 3 -5 6 6 6 11 1 17 -2 13 -5z m-6198 -2841 c-1 -5 0 -10 1 -13 7
-19 7 -39 -1 -34 -5 3 -7 9 -4 14 3 5 1 11 -5 15 -6 4 -8 11 -5 16 7 11 15 12
14 2z m56 -213 c3 -6 -1 -7 -9 -4 -18 7 -21 14 -7 14 6 0 13 -4 16 -10z m158
-467 c-3 -7 -6 -13 -8 -13 -2 0 -5 6 -8 13 -3 8 1 14 8 14 7 0 11 -6 8 -14z
m5862 -892 c3 -5 2 -12 -3 -15 -5 -3 -9 1 -9 9 0 17 3 19 12 6z m-5225 -98 c0
-3 -9 2 -20 12 -11 10 -20 22 -20 27 0 4 9 -1 20 -12 11 -11 20 -23 20 -27z
m440 -403 c0 -5 -2 -10 -4 -10 -3 0 -8 5 -11 10 -3 6 -1 10 4 10 6 0 11 -4 11
-10z m3865 -260 c3 -6 -1 -7 -9 -4 -18 7 -21 14 -7 14 6 0 13 -4 16 -10z
m-3315 -87 c0 -7 -39 17 -46 28 -3 6 5 3 20 -6 14 -10 26 -19 26 -22z m145
-63 c3 -5 1 -10 -4 -10 -6 0 -11 5 -11 10 0 6 2 10 4 10 3 0 8 -4 11 -10z
m2731 -68 c-17 -16 -18 -16 -5 5 7 12 15 20 18 17 3 -2 -3 -12 -13 -22z m-126
-42 c0 -5 -4 -10 -10 -10 -5 0 -10 5 -10 10 0 6 5 10 10 10 6 0 10 -4 10 -10z"/>
<path d="M3300 6990 c-9 -6 -10 -10 -3 -10 6 0 15 5 18 10 8 12 4 12 -15 0z"/>
<path d="M3366 6988 c3 -5 10 -6 15 -3 13 9 11 12 -6 12 -8 0 -12 -4 -9 -9z"/>
<path d="M2650 6900 c-8 -5 -12 -12 -9 -15 4 -3 12 1 19 10 14 17 11 19 -10 5z"/>
<path d="M2530 6881 c0 -6 4 -13 10 -16 6 -3 7 1 4 9 -7 18 -14 21 -14 7z"/>
<path d="M4566 6851 c-4 -5 -2 -12 3 -15 5 -4 12 -2 15 3 4 5 2 12 -3 15 -5 4
-12 2 -15 -3z"/>
<path d="M5420 6441 c0 -6 4 -13 10 -16 6 -3 7 1 4 9 -7 18 -14 21 -14 7z"/>
<path d="M700 5600 c-9 -6 -10 -10 -3 -10 6 0 15 5 18 10 8 12 4 12 -15 0z"/>
<path d="M6398 5493 c7 -3 16 -2 19 1 4 3 -2 6 -13 5 -11 0 -14 -3 -6 -6z"/>
<path d="M6680 4986 c0 -2 7 -9 15 -16 13 -11 14 -10 9 4 -5 14 -24 23 -24 12z"/>
<path d="M6816 4687 c3 -10 9 -15 12 -12 3 3 0 11 -7 18 -10 9 -11 8 -5 -6z"/>
<path d="M140 4479 c0 -5 5 -7 10 -4 6 3 10 8 10 11 0 2 -4 4 -10 4 -5 0 -10
-5 -10 -11z"/>
<path d="M123 4405 c0 -8 4 -12 9 -9 5 3 6 10 3 15 -9 13 -12 11 -12 -6z"/>
<path d="M6985 3989 c-4 -6 -5 -12 -2 -15 2 -3 7 2 10 11 7 17 1 20 -8 4z"/>
<path d="M6987 3679 c4 -13 8 -18 11 -10 2 7 -1 18 -6 23 -8 8 -9 4 -5 -13z"/>
<path d="M3 3545 c0 -8 4 -12 9 -9 5 3 6 10 3 15 -9 13 -12 11 -12 -6z"/>
<path d="M6986 3395 c-9 -26 -7 -32 5 -12 6 10 9 21 6 23 -2 3 -7 -2 -11 -11z"/>
<path d="M6987 3199 c4 -13 8 -18 11 -10 2 7 -1 18 -6 23 -8 8 -9 4 -5 -13z"/>
<path d="M6920 2695 c-11 -13 -10 -14 4 -9 9 3 16 10 16 15 0 13 -6 11 -20 -6z"/>
<path d="M166 2441 c-3 -4 1 -17 10 -27 14 -18 15 -18 5 2 -6 12 -7 24 -4 28
3 3 4 6 0 6 -3 0 -8 -4 -11 -9z"/>
<path d="M6686 2031 c-3 -5 1 -11 9 -14 9 -4 12 -1 8 9 -6 16 -10 17 -17 5z"/>
<path d="M6446 1573 c-6 -14 -5 -15 5 -6 7 7 10 15 7 18 -3 3 -9 -2 -12 -12z"/>
<path d="M695 1400 c3 -5 8 -10 11 -10 2 0 4 5 4 10 0 6 -5 10 -11 10 -5 0 -7
-4 -4 -10z"/>
<path d="M1063 985 c0 -8 4 -12 9 -9 5 3 6 10 3 15 -9 13 -12 11 -12 -6z"/>
<path d="M5799 833 c-13 -17 -13 -17 6 -3 11 8 22 16 24 17 2 2 0 3 -6 3 -6 0
-17 -8 -24 -17z"/>
<path d="M5130 379 c0 -5 5 -7 10 -4 6 3 10 8 10 11 0 2 -4 4 -10 4 -5 0 -10
-5 -10 -11z"/>
<path d="M4754 219 c-3 -6 -2 -15 4 -21 6 -6 12 -6 17 3 6 8 4 10 -5 4 -10 -6
-12 -4 -7 8 7 19 2 23 -9 6z"/>
<path d="M2340 195 c0 -2 7 -8 15 -15 12 -10 15 -10 15 2 0 8 -7 15 -15 15 -8
0 -15 -1 -15 -2z"/>
<path d="M2654 102 c3 -5 0 -13 -6 -15 -9 -4 -10 -6 -1 -6 17 -1 25 16 12 25
-7 4 -9 3 -5 -4z"/>
<path d="M4227 73 c-11 -11 -8 -20 7 -20 8 0 12 6 9 14 -6 15 -7 15 -16 6z"/>
<path d="M3236 12 c-3 -5 1 -9 9 -9 8 0 12 4 9 9 -3 4 -7 8 -9 8 -2 0 -6 -4
-9 -8z"/>
<path d="M3396 12 c-3 -5 1 -9 9 -9 8 0 12 4 9 9 -3 4 -7 8 -9 8 -2 0 -6 -4
-9 -8z"/>
<path d="M3556 12 c-3 -5 1 -9 9 -9 8 0 12 4 9 9 -3 4 -7 8 -9 8 -2 0 -6 -4
-9 -8z"/>
<path d="M3716 12 c-3 -5 1 -9 9 -9 8 0 12 4 9 9 -3 4 -7 8 -9 8 -2 0 -6 -4
-9 -8z"/>
</g>
</svg>
