<svg xmlns="http://www.w3.org/2000/svg" xmlns:xlink="http://www.w3.org/1999/xlink" width="92" zoomAndPan="magnify" viewBox="0 0 69 85.499998" height="114" preserveAspectRatio="xMidYMid meet" version="1.0"><defs><g/><clipPath id="b0fec650e5"><path d="M 0.199219 8.167969 L 68.054688 8.167969 L 68.054688 76.019531 L 0.199219 76.019531 Z M 0.199219 8.167969 " clip-rule="nonzero"/></clipPath></defs><g clip-path="url(#b0fec650e5)"><path fill="#133950" d="M 34.195312 8.167969 C 52.976562 8.167969 68.195312 23.382812 68.195312 42.164062 C 68.195312 60.941406 52.976562 76.160156 34.195312 76.160156 C 15.417969 76.160156 0.199219 60.941406 0.199219 42.164062 C 0.199219 23.382812 15.417969 8.167969 34.195312 8.167969 Z M 34.195312 8.167969 " fill-opacity="1" fill-rule="nonzero"/></g><g fill="#a2c523" fill-opacity="1"><g transform="translate(20.103051, 58.57009)"><g><path d="M 0.492188 -22.371094 L 0.492188 -16.644531 L 3.578125 -16.644531 L 3.578125 0 L 10.46875 0 L 10.46875 -16.644531 L 15.835938 -16.644531 L 15.835938 -22.371094 L 10.46875 -22.371094 L 10.46875 -24.160156 C 10.46875 -26.082031 11.09375 -27.558594 13.914062 -27.558594 L 15.835938 -27.558594 L 15.835938 -33.464844 C 14.761719 -33.644531 13.691406 -33.734375 12.75 -33.734375 C 7.070312 -33.734375 3.578125 -30.824219 3.578125 -24.160156 L 3.578125 -22.371094 Z M 0.492188 -22.371094 "/></g></g></g><g fill="#ffffff" fill-opacity="1"><g transform="translate(34.200297, 58.57009)"><g><path d="M 5.996094 -25.859375 C 8.140625 -25.859375 9.886719 -27.605469 9.886719 -29.796875 C 9.886719 -31.988281 8.140625 -33.6875 5.996094 -33.6875 C 3.804688 -33.6875 2.058594 -31.988281 2.058594 -29.796875 C 2.058594 -27.605469 3.804688 -25.859375 5.996094 -25.859375 Z M 2.59375 0 L 9.484375 0 L 9.484375 -22.371094 L 2.59375 -22.371094 Z M 2.59375 0 "/></g></g></g></svg>