<?xml version="1.0" encoding="UTF-8"?>
<svg id="Layer_1" data-name="Layer 1" xmlns="http://www.w3.org/2000/svg" version="1.1" viewBox="0 0 2303 566">
  <defs>
    <style>
      .cls-1 {
        fill: none;
      }

      .cls-1, .cls-2, .cls-3, .cls-4 {
        stroke-width: 0px;
      }

      .cls-2 {
        fill: #133950;
      }

      .cls-3 {
        fill: #a2c523;
      }

      .cls-4 {
        fill: #fff;
      }
    </style>
  </defs>
  <path class="cls-1" d="M2016.7,362.9c0,12.8,7.8,18.8,24.5,18.8s35.5-10.3,35.5-30.6v-9.6l-27.7,2.5c-23.8,2.1-32.3,7.5-32.3,18.8Z"/>
  <path class="cls-1" d="M1260.7,283.3c-25.9,0-42.2,18.1-42.2,44.4s16.3,44.4,42.2,44.4,43.3-17.8,43.3-44.4-17.7-44.4-43.3-44.4Z"/>
  <path class="cls-3" d="M382.2,149.2c-16,0-28.8,12.4-28.8,28.5s12.8,28.8,28.8,28.8,28.5-12.8,28.5-28.8-12.8-28.5-28.5-28.5Z"/>
  <path class="cls-3" d="M353.8,217v200.8h54.8v-199.3c-7.5,4.9-16.5,7.7-26.1,7.7s-20.7-3.4-28.7-9.2Z"/>
  <path class="cls-4" d="M323,36.7c-136,0-246.3,110.3-246.3,246.3s110.3,246.3,246.3,246.3,246.3-110.3,246.3-246.3S459.1,36.7,323,36.7ZM408.7,417.8h-54.8v-132.5h-56v132.5h-54.8v-132.5h-24.6v-45.6h24.6v-14.2c0-53.1,26.3-76.2,68-76.2s17.1.2,31.6.5c-5.5,7.8-8.7,17.3-8.7,27.8s1.7,14.6,4.6,20.9h-18.2c-18.9,0-22.4,11.7-22.4,27.1v14.2h56v-22.8c8,5.8,17.9,9.2,28.7,9.2s18.6-2.8,26.1-7.7v199.3ZM382.2,206.4c-16,0-28.8-12.8-28.8-28.8s12.8-28.5,28.8-28.5,28.5,12.4,28.5,28.5-12.8,28.8-28.5,28.8Z"/>
  <path class="cls-2" d="M297.8,239.7v-14.2c0-15.3,3.6-27.1,22.4-27.1h18.2c-3-6.3-4.6-13.4-4.6-20.9s3.2-20,8.7-27.8c-14.5-.3-28.1-.5-31.6-.5-41.7,0-68,23.2-68,76.2v14.2h-24.6v45.6h24.6v132.5h54.8v-132.5h56v-45.6h-56Z"/>
  <path class="cls-4" d="M769.5,239.9h-65.2v-14.2c0-15.3,3.5-27,22.3-27h15.2v-46.9c-8.5-1.4-17-2.1-24.5-2.1-41.5,0-67.7,23.1-67.7,76.1v14.2h-24.5v45.5h24.5v132.3h54.6v-132.3h65.2v132.3h54.6V149.6h-54.6v90.3Z"/>
  <path class="cls-4" d="M983,332.3c0,29.2-9.6,41.2-33,41.2s-32.3-12.8-32.3-42v-91.7h-54.6v111.6c0,43.7,24.8,70.8,65.2,70.8s43.3-10,54.3-24.5l3.5,19.9h51.4v-177.8h-54.6v92.4Z"/>
  <path class="cls-4" d="M1105.7,149.9c-17.4,0-31.2,13.5-31.2,30.9s13.8,31.3,31.2,31.3,30.8-13.9,30.8-31.3-13.8-30.9-30.8-30.9Z"/>
  <rect class="cls-4" x="1078.8" y="239.9" width="54.6" height="177.8"/>
  <path class="cls-4" d="M1304.3,256.2c-10.3-13.2-31.2-22-53.2-22-53.9,0-87.6,39.1-87.6,95.6s33,92.4,84,92.4,47.5-11,57.1-27.4l2.8,22.8h51.4V149.6h-54.6v106.7ZM1260.7,372.2c-25.9,0-42.2-18.1-42.2-44.4s16.3-44.4,42.2-44.4,43.3,17.8,43.3,44.4-17.7,44.4-43.3,44.4Z"/>
  <path class="cls-4" d="M1427,149.9c-17.4,0-31.2,13.5-31.2,30.9s13.8,31.3,31.2,31.3,30.9-13.9,30.9-31.3-13.8-30.9-30.9-30.9Z"/>
  <rect class="cls-4" x="1400" y="239.9" width="54.6" height="177.8"/>
  <polygon class="cls-4" points="1567.4 184.8 1512.8 184.8 1512.8 239.9 1479.1 239.9 1479.1 285.4 1512.8 285.4 1512.8 417.7 1567.4 417.7 1567.4 285.4 1601.1 285.4 1601.1 239.9 1567.4 239.9 1567.4 184.8"/>
  <path class="cls-4" d="M1703.9,354l-38.6-114.1h-58.5l71.3,183.8-3.2,8.5c-7.1,19.2-14.9,24.9-33.3,24.9h-30.1v45.9c10.6,3.2,23,5,36.2,5,31.2,0,51.1-15.3,66-51.6l90.1-216.5h-56.7l-42.9,114.1Z"/>
  <rect class="cls-3" x="1812.4" y="297.5" width="121.3" height="48.4"/>
  <path class="cls-4" d="M2048.9,234.2c-50.7,0-83.7,26.3-83.7,66.5h45.4c0-16,12.4-24.9,35.5-24.9s30.1,9.2,30.1,26.7v2.8l-49.6,3.9c-42.6,3.2-65.6,23.5-65.6,56.2s23.4,56.9,61,56.9,50-11.7,55.7-28.1l3.5,23.5h48.2v-103.8c0-50.8-29.1-79.6-80.5-79.6ZM2076.6,351.2c0,20.3-14.5,30.6-35.5,30.6s-24.5-6-24.5-18.8,8.5-16.7,32.3-18.8l27.7-2.5v9.6Z"/>
  <path class="cls-4" d="M2195.4,212.2c17,0,30.9-13.9,30.9-31.3s-13.8-30.9-30.9-30.9-31.2,13.5-31.2,30.9,13.8,31.3,31.2,31.3Z"/>
  <rect class="cls-4" x="2168.4" y="239.9" width="54.6" height="177.8"/>
</svg>