<svg xmlns="http://www.w3.org/2000/svg" xmlns:xlink="http://www.w3.org/1999/xlink" width="102" zoomAndPan="magnify" viewBox="0 0 76.5 94.499998" height="126" preserveAspectRatio="xMidYMid meet" version="1.0"><defs><g/><clipPath id="6d6999d272"><path d="M 0 9.101562 L 75.257812 9.101562 L 75.257812 84.359375 L 0 84.359375 Z M 0 9.101562 " clip-rule="nonzero"/></clipPath></defs><g clip-path="url(#6d6999d272)"><path fill="#ffffff" d="M 37.652344 9.101562 C 58.453125 9.101562 75.304688 25.957031 75.304688 46.753906 C 75.304688 67.554688 58.453125 84.40625 37.652344 84.40625 C 16.851562 84.40625 0 67.554688 0 46.753906 C 0 25.957031 16.851562 9.101562 37.652344 9.101562 Z M 37.652344 9.101562 " fill-opacity="1" fill-rule="nonzero"/></g><g fill="#a2c523" fill-opacity="1"><g transform="translate(22.042309, 64.925774)"><g><path d="M 0.546875 -24.773438 L 0.546875 -18.433594 L 3.964844 -18.433594 L 3.964844 0 L 11.59375 0 L 11.59375 -18.433594 L 17.539062 -18.433594 L 17.539062 -24.773438 L 11.59375 -24.773438 L 11.59375 -26.757812 C 11.59375 -28.886719 12.289062 -30.523438 15.410156 -30.523438 L 17.539062 -30.523438 L 17.539062 -37.0625 C 16.351562 -37.261719 15.160156 -37.359375 14.121094 -37.359375 C 7.828125 -37.359375 3.964844 -34.140625 3.964844 -26.757812 L 3.964844 -24.773438 Z M 0.546875 -24.773438 "/></g></g></g><g fill="#133950" fill-opacity="1"><g transform="translate(37.655238, 64.925774)"><g><path d="M 6.640625 -28.640625 C 9.019531 -28.640625 10.949219 -30.570312 10.949219 -33 C 10.949219 -35.425781 9.019531 -37.308594 6.640625 -37.308594 C 4.210938 -37.308594 2.277344 -35.425781 2.277344 -33 C 2.277344 -30.570312 4.210938 -28.640625 6.640625 -28.640625 Z M 2.875 0 L 10.503906 0 L 10.503906 -24.773438 L 2.875 -24.773438 Z M 2.875 0 "/></g></g></g></svg>