<?xml version="1.0" encoding="UTF-8"?>
<!DOCTYPE svg PUBLIC "-//W3C//DTD SVG 1.1//EN" "http://www.w3.org/Graphics/SVG/1.1/DTD/svg11.dtd">
<svg xmlns="http://www.w3.org/2000/svg" version="1.1" width="1403px" height="324px" style="shape-rendering:geometricPrecision; text-rendering:geometricPrecision; image-rendering:optimizeQuality; fill-rule:evenodd; clip-rule:evenodd" xmlns:xlink="http://www.w3.org/1999/xlink">
<g><path style="opacity:1" fill="#fdfdfd" d="M -0.5,-0.5 C 24.8333,-0.5 50.1667,-0.5 75.5,-0.5C 47.6544,2.1737 30.4877,17.1737 24,44.5C 22.1148,56.0826 21.1148,67.7492 21,79.5C 14.4009,80.1495 7.90089,80.8162 1.5,81.5C 0.833333,81.5 0.166667,81.5 -0.5,81.5C -0.5,54.1667 -0.5,26.8333 -0.5,-0.5 Z"/></g>
<g><path style="opacity:1" fill="#fefefe" d="M 180.5,-0.5 C 324.833,-0.5 469.167,-0.5 613.5,-0.5C 613.5,30.1667 613.5,60.8333 613.5,91.5C 613.103,92.525 612.437,92.6917 611.5,92C 593.823,77.9949 573.823,72.9949 551.5,77C 517.159,83.6738 496.326,104.174 489,138.5C 483.58,164.398 486.913,189.064 499,212.5C 514.27,235.223 535.77,246.556 563.5,246.5C 583.455,246.18 600.122,238.847 613.5,224.5C 614.906,229.407 615.906,234.407 616.5,239.5C 616.818,240.647 617.484,241.481 618.5,242C 632.833,242.667 647.167,242.667 661.5,242C 662.333,241.167 663.167,240.333 664,239.5C 664.83,160.097 664.663,80.7633 663.5,1.5C 663.5,0.833333 663.5,0.166667 663.5,-0.5C 898.833,-0.5 1134.17,-0.5 1369.5,-0.5C 1369.5,-0.166667 1369.5,0.166667 1369.5,0.5C 1350.65,5.86237 1343.15,18.1957 1347,37.5C 1353.94,53.0541 1365.77,59.2207 1382.5,56C 1392.78,52.5556 1399.45,45.7223 1402.5,35.5C 1402.5,131.5 1402.5,227.5 1402.5,323.5C 1247.83,323.5 1093.17,323.5 938.5,323.5C 956.162,319.064 969.329,308.731 978,292.5C 1008.01,223.806 1036.84,154.64 1064.5,85C 1064.56,83.2894 1063.89,81.956 1062.5,81C 1054.07,79.8781 1045.57,79.3781 1037,79.5C 1029.5,79.6667 1022,79.8333 1014.5,80C 1013,81.5 1011.5,83 1010,84.5C 1001.51,106.818 993.175,129.151 985,151.5C 982.232,158.823 978.899,165.823 975,172.5C 974.228,172.355 973.561,172.022 973,171.5C 963.569,142.036 953.069,113.036 941.5,84.5C 935.818,80.2333 929.484,79.2333 922.5,81.5C 911.953,79.5244 901.287,79.0244 890.5,80C 889.167,80.6667 887.833,81.3333 886.5,82C 887.239,85.4871 888.073,88.9871 889,92.5C 908,141.167 927,189.833 946,238.5C 948.584,251.407 944.751,262.24 934.5,271C 931.637,272.399 928.637,273.399 925.5,274C 915.167,274.333 904.833,274.667 894.5,275C 891.667,275.833 889.833,277.667 889,280.5C 888.333,292.167 888.333,303.833 889,315.5C 890.141,317.609 891.641,319.442 893.5,321C 895.852,321.24 897.852,322.073 899.5,323.5C 599.5,323.5 299.5,323.5 -0.5,323.5C -0.5,256.5 -0.5,189.5 -0.5,122.5C 0.166667,122.5 0.833333,122.5 1.5,122.5C 8.39544,122.85 15.0621,123.85 21.5,125.5C 20.8393,164.514 21.506,203.181 23.5,241.5C 38.6611,242.661 53.9945,242.828 69.5,242C 70.3333,241.167 71.1667,240.333 72,239.5C 72.5,200.835 72.6667,162.168 72.5,123.5C 91.8627,122.846 110.863,123.513 129.5,125.5C 128.839,164.514 129.506,203.181 131.5,241.5C 147.849,242.775 164.016,242.775 180,241.5C 180.5,160.834 180.667,80.1674 180.5,-0.5 Z"/></g>
<g><path style="opacity:1" fill="#f4f4f4" d="M 1369.5,0.5 C 1369.5,0.166667 1369.5,-0.166667 1369.5,-0.5C 1380.5,-0.5 1391.5,-0.5 1402.5,-0.5C 1402.5,6.83333 1402.5,14.1667 1402.5,21.5C 1397.04,6.07894 1386.04,-0.921061 1369.5,0.5 Z"/></g>
<g><path style="opacity:1" fill="#020202" d="M 75.5,-0.5 C 80.8333,-0.5 86.1667,-0.5 91.5,-0.5C 95.3388,0.293008 99.3388,0.959675 103.5,1.5C 104.647,1.81777 105.481,2.48444 106,3.5C 106.667,16.5 106.667,29.5 106,42.5C 105.5,43.6667 104.667,44.5 103.5,45C 96.8333,45.3333 90.1667,45.6667 83.5,46C 77.5551,48.0272 74.0551,52.1939 73,58.5C 72.3333,65.5 72.3333,72.5 73,79.5C 91.4265,80.6587 109.926,80.8253 128.5,80C 129.056,79.6174 129.389,79.1174 129.5,78.5C 130.175,52.9608 130.842,27.2942 131.5,1.5C 147.201,0.182629 162.867,0.182629 178.5,1.5C 179.298,1.04311 179.631,0.376442 179.5,-0.5C 179.833,-0.5 180.167,-0.5 180.5,-0.5C 180.667,80.1674 180.5,160.834 180,241.5C 164.016,242.775 147.849,242.775 131.5,241.5C 130.839,202.736 130.172,164.069 129.5,125.5C 110.863,123.513 91.8627,122.846 72.5,123.5C 72.6667,162.168 72.5,200.835 72,239.5C 71.1667,240.333 70.3333,241.167 69.5,242C 53.9945,242.828 38.6611,242.661 23.5,241.5C 22.8391,202.736 22.1724,164.069 21.5,125.5C 15.0621,123.85 8.39544,122.85 1.5,122.5C 0.166667,108.833 0.166667,95.1667 1.5,81.5C 7.90089,80.8162 14.4009,80.1495 21,79.5C 21.1148,67.7492 22.1148,56.0826 24,44.5C 30.4877,17.1737 47.6544,2.1737 75.5,-0.5 Z"/></g>
<g><path style="opacity:1" fill="#fefefe" d="M 91.5,-0.5 C 104.167,-0.5 116.833,-0.5 129.5,-0.5C 129.5,25.8333 129.5,52.1667 129.5,78.5C 129.389,79.1174 129.056,79.6174 128.5,80C 109.926,80.8253 91.4265,80.6587 73,79.5C 72.3333,72.5 72.3333,65.5 73,58.5C 74.0551,52.1939 77.5551,48.0272 83.5,46C 90.1667,45.6667 96.8333,45.3333 103.5,45C 104.667,44.5 105.5,43.6667 106,42.5C 106.667,29.5 106.667,16.5 106,3.5C 105.481,2.48444 104.647,1.81777 103.5,1.5C 99.3388,0.959675 95.3388,0.293008 91.5,-0.5 Z"/></g>
<g><path style="opacity:1" fill="#010101" d="M 425.5,0.5 C 451.312,-1.18843 463.145,10.8116 461,36.5C 454.551,52.8079 442.717,59.3079 425.5,56C 409.192,49.5506 402.692,37.7172 406,20.5C 409.351,10.6498 415.851,3.98314 425.5,0.5 Z"/></g>
<g><path style="opacity:1" fill="#020202" d="M 663.5,1.5 C 664.663,80.7633 664.83,160.097 664,239.5C 663.167,240.333 662.333,241.167 661.5,242C 647.167,242.667 632.833,242.667 618.5,242C 617.484,241.481 616.818,240.647 616.5,239.5C 615.906,234.407 614.906,229.407 613.5,224.5C 600.122,238.847 583.455,246.18 563.5,246.5C 535.77,246.556 514.27,235.223 499,212.5C 486.913,189.064 483.58,164.398 489,138.5C 496.326,104.174 517.159,83.6738 551.5,77C 573.823,72.9949 593.823,77.9949 611.5,92C 612.437,92.6917 613.103,92.525 613.5,91.5C 614.332,61.6695 614.832,31.6695 615,1.5C 631.137,0.187109 647.303,0.187109 663.5,1.5 Z"/></g>
<g><path style="opacity:1" fill="#010101" d="M 716.5,0.5 C 738.119,-2.19552 750.452,7.13781 753.5,28.5C 751.502,45.831 741.836,55.4976 724.5,57.5C 703.528,54.5681 694.362,42.5681 697,21.5C 699.914,11.0889 706.414,4.08891 716.5,0.5 Z"/></g>
<g><path style="opacity:1" fill="#010101" d="M 1369.5,0.5 C 1386.04,-0.921061 1397.04,6.07894 1402.5,21.5C 1402.5,26.1667 1402.5,30.8333 1402.5,35.5C 1399.45,45.7223 1392.78,52.5556 1382.5,56C 1365.77,59.2207 1353.94,53.0541 1347,37.5C 1343.15,18.1957 1350.65,5.86237 1369.5,0.5 Z"/></g>
<g><path style="opacity:1" fill="#1f1f1f" d="M 129.5,-0.5 C 146.167,-0.5 162.833,-0.5 179.5,-0.5C 179.631,0.376442 179.298,1.04311 178.5,1.5C 162.867,0.182629 147.201,0.182629 131.5,1.5C 130.842,27.2942 130.175,52.9608 129.5,78.5C 129.5,52.1667 129.5,25.8333 129.5,-0.5 Z"/></g>
<g><path style="opacity:1" fill="#2a2a2a" d="M 613.5,-0.5 C 630.167,-0.5 646.833,-0.5 663.5,-0.5C 663.5,0.166667 663.5,0.833333 663.5,1.5C 647.303,0.187109 631.137,0.187109 615,1.5C 614.832,31.6695 614.332,61.6695 613.5,91.5C 613.5,60.8333 613.5,30.1667 613.5,-0.5 Z"/></g>
<g><path style="opacity:1" fill="#434341" d="M 851.5,31.5 C 851.631,32.2389 851.464,32.9056 851,33.5C 835.23,32.1765 819.397,32.1765 803.5,33.5C 803.145,34.5223 802.478,35.189 801.5,35.5C 801.5,34.1667 801.5,32.8333 801.5,31.5C 818.167,31.5 834.833,31.5 851.5,31.5 Z"/></g>
<g><path style="opacity:1" fill="#020202" d="M 851.5,31.5 C 852.496,47.6581 852.83,63.9915 852.5,80.5C 862.015,80.1731 871.348,80.5064 880.5,81.5C 881.833,95.1667 881.833,108.833 880.5,122.5C 871.25,123.472 861.917,123.805 852.5,123.5C 852.667,162.835 852.5,202.168 852,241.5C 836.016,242.775 819.849,242.775 803.5,241.5C 802.839,202.736 802.172,164.069 801.5,125.5C 792.378,123.843 783.045,122.843 773.5,122.5C 772.167,108.833 772.167,95.1667 773.5,81.5C 782.568,80.8212 791.735,80.1545 801,79.5C 801.5,64.8371 801.667,50.1705 801.5,35.5C 802.478,35.189 803.145,34.5223 803.5,33.5C 819.397,32.1765 835.23,32.1765 851,33.5C 851.464,32.9056 851.631,32.2389 851.5,31.5 Z"/></g>
<g><path style="opacity:1" fill="#040404" d="M 1234.5,74.5 C 1252.71,74.441 1270.04,78.2744 1286.5,86C 1304.45,98.3869 1314.28,115.554 1316,137.5C 1316.67,171.5 1316.67,205.5 1316,239.5C 1314.3,241.41 1312.13,242.577 1309.5,243C 1298.17,243.667 1286.83,243.667 1275.5,243C 1274.13,242.598 1272.79,242.098 1271.5,241.5C 1270.12,237.236 1268.95,232.902 1268,228.5C 1267.59,228.043 1267.09,227.709 1266.5,227.5C 1256.37,237.899 1244.03,244.066 1229.5,246C 1211.74,248.99 1195.41,245.656 1180.5,236C 1165.87,222.32 1159.7,205.486 1162,185.5C 1167.02,164.811 1179.85,151.645 1200.5,146C 1205.48,144.893 1210.48,143.893 1215.5,143C 1231.88,141.677 1248.21,140.177 1264.5,138.5C 1266.41,126.516 1261.41,119.016 1249.5,116C 1241.83,115.333 1234.17,115.333 1226.5,116C 1215.32,118.346 1209.32,125.179 1208.5,136.5C 1195.1,137.984 1181.77,137.818 1168.5,136C 1168,135.5 1167.5,135 1167,134.5C 1166.08,120.864 1170.08,108.864 1179,98.5C 1194.54,83.599 1213.04,75.599 1234.5,74.5 Z"/></g>
<g><path style="opacity:1" fill="#020202" d="M 938.5,323.5 C 925.5,323.5 912.5,323.5 899.5,323.5C 897.852,322.073 895.852,321.24 893.5,321C 891.641,319.442 890.141,317.609 889,315.5C 888.333,303.833 888.333,292.167 889,280.5C 889.833,277.667 891.667,275.833 894.5,275C 904.833,274.667 915.167,274.333 925.5,274C 928.637,273.399 931.637,272.399 934.5,271C 944.751,262.24 948.584,251.407 946,238.5C 927,189.833 908,141.167 889,92.5C 888.073,88.9871 887.239,85.4871 886.5,82C 887.833,81.3333 889.167,80.6667 890.5,80C 901.287,79.0244 911.953,79.5244 922.5,81.5C 929.484,79.2333 935.818,80.2333 941.5,84.5C 953.069,113.036 963.569,142.036 973,171.5C 973.561,172.022 974.228,172.355 975,172.5C 978.899,165.823 982.232,158.823 985,151.5C 993.175,129.151 1001.51,106.818 1010,84.5C 1011.5,83 1013,81.5 1014.5,80C 1022,79.8333 1029.5,79.6667 1037,79.5C 1045.57,79.3781 1054.07,79.8781 1062.5,81C 1063.89,81.956 1064.56,83.2894 1064.5,85C 1036.84,154.64 1008.01,223.806 978,292.5C 969.329,308.731 956.162,319.064 938.5,323.5 Z"/></g>
<g><path style="opacity:1" fill="#070707" d="M 1352.5,79.5 C 1367.17,79.3334 1381.84,79.5001 1396.5,80C 1397.35,81.0217 1398.35,81.8551 1399.5,82.5C 1400.67,134.83 1400.83,187.163 1400,239.5C 1398.99,241.259 1397.49,242.426 1395.5,243C 1381.17,243.667 1366.83,243.667 1352.5,243C 1351.42,242.044 1350.25,241.211 1349,240.5C 1348.33,187.833 1348.33,135.167 1349,82.5C 1350.52,81.8366 1351.69,80.8366 1352.5,79.5 Z"/></g>
<g><path style="opacity:1" fill="#020202" d="M 262.5,81.5 C 263.159,110.931 263.826,140.264 264.5,169.5C 266.501,196.327 280.501,206.16 306.5,199C 313.661,196.192 318.161,191.026 320,183.5C 321.376,178.245 322.209,172.912 322.5,167.5C 323.174,138.931 323.841,110.264 324.5,81.5C 339.735,80.1771 355.069,80.1771 370.5,81.5C 371.833,134.833 371.833,188.167 370.5,241.5C 355.908,242.649 341.241,242.815 326.5,242C 324.781,236.874 323.115,231.708 321.5,226.5C 297.908,247.41 271.575,251.576 242.5,239C 225.932,228.406 216.765,213.24 215,193.5C 213.407,156.521 213.074,119.521 214,82.5C 214.5,82 215,81.5 215.5,81C 231.339,80.172 247.005,80.3387 262.5,81.5 Z"/></g>
<g><path style="opacity:1" fill="#010101" d="M 456.5,241.5 C 441.496,241.667 426.496,241.5 411.5,241C 411,240.5 410.5,240 410,239.5C 409.176,186.792 409.342,134.126 410.5,81.5C 426.693,80.204 443.027,80.204 459.5,81.5C 459.667,134.834 459.5,188.168 459,241.5C 458.23,240.402 457.397,240.402 456.5,241.5 Z"/></g>
<g><path style="opacity:1" fill="#040404" d="M 748.5,81.5 C 749.833,134.833 749.833,188.167 748.5,241.5C 740.576,242.152 732.576,242.485 724.5,242.5C 716.335,242.468 708.335,241.802 700.5,240.5C 699.167,187.833 699.167,135.167 700.5,82.5C 708.335,81.1984 716.335,80.5317 724.5,80.5C 732.576,80.5149 740.576,80.8482 748.5,81.5 Z"/></g>
<g><path style="opacity:1" fill="#272727" d="M 410.5,81.5 C 409.342,134.126 409.176,186.792 410,239.5C 410.5,240 411,240.5 411.5,241C 426.496,241.5 441.496,241.667 456.5,241.5C 440.961,242.824 425.294,242.824 409.5,241.5C 409.167,214.833 408.833,188.167 408.5,161.5C 408.5,134.492 409.167,107.825 410.5,81.5 Z"/></g>
<g><path style="opacity:1" fill="#484848" d="M 370.5,81.5 C 371.833,107.825 372.5,134.492 372.5,161.5C 372.5,188.508 371.833,215.175 370.5,241.5C 371.833,188.167 371.833,134.833 370.5,81.5 Z"/></g>
<g><path style="opacity:1" fill="#393938" d="M 262.5,81.5 C 264.492,110.481 265.159,139.814 264.5,169.5C 263.826,140.264 263.159,110.931 262.5,81.5 Z"/></g>
<g><path style="opacity:1" fill="#4b4b4b" d="M 773.5,81.5 C 772.167,95.1667 772.167,108.833 773.5,122.5C 772.17,116.034 771.503,109.201 771.5,102C 771.503,94.7991 772.17,87.9658 773.5,81.5 Z"/></g>
<g><path style="opacity:1" fill="#363635" d="M 880.5,81.5 C 881.83,87.9658 882.497,94.7991 882.5,102C 882.497,109.201 881.83,116.034 880.5,122.5C 881.833,108.833 881.833,95.1667 880.5,81.5 Z"/></g>
<g><path style="opacity:1" fill="#393938" d="M -0.5,81.5 C 0.166667,81.5 0.833333,81.5 1.5,81.5C 0.166667,95.1667 0.166667,108.833 1.5,122.5C 0.833333,122.5 0.166667,122.5 -0.5,122.5C -0.5,108.833 -0.5,95.1667 -0.5,81.5 Z"/></g>
<g><path style="opacity:1" fill="#40403f" d="M 324.5,81.5 C 323.841,110.264 323.174,138.931 322.5,167.5C 321.841,138.481 322.508,109.814 324.5,81.5 Z"/></g>
<g><path style="opacity:1" fill="#212121" d="M 748.5,81.5 C 749.833,107.825 750.5,134.492 750.5,161.5C 750.5,188.508 749.833,215.175 748.5,241.5C 749.833,188.167 749.833,134.833 748.5,81.5 Z"/></g>
<g><path style="opacity:1" fill="#fcfcfc" d="M 564.5,121.5 C 581.048,118.496 594.881,123.163 606,135.5C 607.92,138.339 609.587,141.339 611,144.5C 613.577,156.797 612.91,168.797 609,180.5C 603.804,190.031 595.971,196.197 585.5,199C 563.297,203.983 547.797,196.149 539,175.5C 533.452,156.897 537.619,141.063 551.5,128C 555.657,125.255 559.99,123.088 564.5,121.5 Z"/></g>
<g><path style="opacity:1" fill="#2c2c2c" d="M 21.5,125.5 C 22.1724,164.069 22.8391,202.736 23.5,241.5C 21.506,203.181 20.8393,164.514 21.5,125.5 Z"/></g>
<g><path style="opacity:1" fill="#1e1e1e" d="M 129.5,125.5 C 130.172,164.069 130.839,202.736 131.5,241.5C 129.506,203.181 128.839,164.514 129.5,125.5 Z"/></g>
<g><path style="opacity:1" fill="#1e1e1e" d="M 801.5,125.5 C 802.172,164.069 802.839,202.736 803.5,241.5C 801.506,203.181 800.839,164.514 801.5,125.5 Z"/></g>
<g><path style="opacity:1" fill="#fbfbfb" d="M 1260.5,174.5 C 1262.14,174.286 1263.64,174.62 1265,175.5C 1267.54,197.463 1257.71,208.13 1235.5,207.5C 1220.51,209.005 1213.67,202.339 1215,187.5C 1218.38,182.219 1223.22,179.052 1229.5,178C 1240.01,177.056 1250.34,175.889 1260.5,174.5 Z"/></g>
</svg>
